<?xml version="1.0" encoding="UTF-8"?>
<svg width="482" height="482" viewBox="0 0 482 482" fill="none" xmlns="http://www.w3.org/2000/svg">
    <path
        d="M84.8559 0.81958C67.5871 0.81958 51.1244 6.99606 37.4623 16.9412C2.48042 42.1706 -14.6261 95.2674 18.1577 140.387C43.9627 175.98 32.7809 222.461 6.07678 248.633L19.3461 262.661C52.3852 230.313 65.9439 173.049 33.8143 128.767C7.00688 91.9175 20.9583 52.6392 48.3134 32.7489C61.9962 22.9084 79.0789 18.4069 96.017 21.7568C112.139 25.0021 128.674 35.5754 143.555 57.9782L82.4789 93.8018L107.385 137.665C56.3329 204.036 46.9803 297.94 90.9531 375.408C148.826 477.163 276.869 512.023 377.009 453.294C477.149 394.565 511.356 264.44 453.484 162.685C409.562 85.3222 325.13 46.5674 243.179 58.1876L218.169 14.2194L160.297 48.2424C142.935 21.6521 121.543 6.57732 99.634 2.1805C94.6735 1.23832 89.713 0.81958 84.8559 0.81958ZM274.182 90.5566L257.647 241.305L389.927 224.555L224.577 442.302L290.717 274.804L174.972 308.304L274.182 90.5566Z"
        fill="white" />
</svg>