<?xml version="1.0" encoding="UTF-8"?>
<svg width="482" height="482" viewBox="0 0 482 482" fill="none" xmlns="http://www.w3.org/2000/svg">
<path d="M241.159 0.939827L150.164 234.856L165.769 295.137L147.844 302.723L131.817 240.952L61.7834 169.157L48.9407 251.654L62.2474 268.722L48.8986 285.79L32.861 265.2L0.669914 237.566L27.1883 458.911L68.4895 370.59L163.028 419.085L195.609 481.94L286.71 481.94L319.291 419.085L413.871 370.59L455.099 458.911L481.67 237.566L449.405 265.2L433.378 285.79L420.092 268.722L433.378 251.654L420.514 169.157L350.501 240.952L334.474 302.723L316.55 295.137L332.155 234.856L241.159 0.939827ZM241.159 166.99L299.89 292.699L301.893 297.034L283.441 391.857L261.931 419.356L220.388 419.356L198.878 391.857L180.425 297.034L241.159 166.99ZM241.159 214.131L200.67 300.827L215.959 379.395L228.19 395.244L254.129 395.244L266.36 379.395L281.649 300.827L241.159 214.131Z" fill="white"/>
</svg>
