<?xml version="1.0" encoding="UTF-8"?>
<svg width="482" height="482" viewBox="0 0 482 482" fill="none" xmlns="http://www.w3.org/2000/svg">
<path d="M366.114 286.664C435.473 208.731 464.666 145.831 475.58 99.7083C481.893 73.0389 482.013 52.2026 480.39 37.6201C479.759 31.9002 478.673 26.2397 477.143 20.6925C476.502 18.3419 475.719 16.0326 474.798 13.7771C472.603 8.8461 469.747 6.71135 464.215 4.87727C462.631 4.3598 461.026 3.90841 459.405 3.52426C453.767 2.18045 448.04 1.24594 442.268 0.728039C427.536 -0.594904 406.491 -0.173968 379.734 6.38061C333.554 17.6256 270.96 46.7605 194.506 114.742L122.351 121.898L122.17 121.898C104.832 123.826 88.669 131.611 76.3518 143.967L4.73797 215.706C2.46974 217.991 0.974705 220.929 0.463179 224.107C-0.048348 227.286 0.44938 230.544 1.88634 233.425C3.3233 236.306 5.62719 238.664 8.47388 240.167C11.3206 241.67 14.5668 242.243 17.7559 241.804L74.7584 233.656C83.1765 232.454 92.5566 234.047 103.47 237.625C110.445 239.91 116.608 242.436 123.162 245.082L129.266 247.577C135.158 272.112 149.108 295.083 167.598 313.574C186.027 332.035 208.967 346.046 233.469 351.969L235.935 358.043C238.61 364.598 241.136 370.791 243.421 377.797C246.968 388.711 248.592 398.122 247.389 406.541L239.242 463.668C238.812 466.851 239.388 470.089 240.89 472.929C242.393 475.768 244.745 478.066 247.619 479.501C250.492 480.936 253.743 481.437 256.915 480.932C260.087 480.427 263.021 478.943 265.308 476.687L336.922 404.947C349.248 392.62 357.005 376.414 358.929 359.065L366.114 286.664ZM369.421 175.447C345.46 199.5 311.397 204.341 293.418 186.331C275.44 168.291 280.31 134.225 304.271 110.202C328.263 86.1781 362.296 81.3374 380.275 99.3474C398.253 117.358 393.413 151.423 369.452 175.447L369.421 175.447Z" fill="white"/>
<path d="M156.713 324.454C172.67 340.625 190.95 354.326 210.949 365.105C177.337 395.382 62.7609 426.08 59.0028 422.322C55.2146 418.503 81.1604 296.372 114.292 266.575C124.694 287.322 139.456 307.166 156.713 324.454Z" fill="white"/>
</svg>
